<?xml version="1.0" standalone="no"?>
<!DOCTYPE svg PUBLIC "-//W3C//DTD SVG 20010904//EN"
 "http://www.w3.org/TR/2001/REC-SVG-20010904/DTD/svg10.dtd">
<svg version="1.0" xmlns="http://www.w3.org/2000/svg"
 width="2874.000000pt" height="2874.000000pt" viewBox="0 0 2874.000000 2874.000000"
 preserveAspectRatio="xMidYMid meet">
<metadata>
Created by potrace 1.14, written by Peter Selinger 2001-2017
</metadata>
<g transform="translate(0.000000,2874.000000) scale(0.100000,-0.100000)"
fill="#000000" stroke="none">
<path d="M23292 14496 c0 -2376 3 -3135 11 -3138 10 -3 1170 -2 1189 1 3 1 5
218 3 484 -5 554 -15 2143 -19 2700 -1 207 0 377 1 377 2 0 14 -10 27 -22 12
-13 60 -57 106 -98 46 -41 88 -80 94 -86 6 -5 38 -34 71 -64 33 -29 97 -87
142 -128 46 -41 93 -83 105 -94 13 -11 61 -54 107 -96 46 -42 89 -81 95 -87 6
-5 54 -48 106 -95 52 -47 104 -94 116 -105 11 -11 52 -48 90 -81 38 -34 81
-73 95 -85 14 -13 64 -58 110 -100 46 -43 104 -94 128 -115 24 -22 56 -50 71
-64 15 -14 64 -59 110 -100 46 -41 88 -80 94 -85 6 -6 54 -48 106 -95 52 -47
99 -90 105 -96 5 -6 55 -51 110 -100 55 -48 105 -93 111 -99 29 -27 189 -172
207 -188 12 -10 55 -49 97 -87 42 -38 85 -77 97 -87 11 -10 59 -53 106 -97 48
-43 95 -86 105 -95 11 -9 52 -46 93 -83 41 -36 83 -75 95 -85 20 -17 163 -147
224 -203 15 -14 65 -59 111 -100 45 -41 94 -85 107 -97 13 -12 55 -50 94 -85
39 -35 83 -73 96 -85 13 -13 63 -58 110 -100 47 -43 96 -87 108 -98 38 -35
176 -159 194 -175 32 -28 183 -165 229 -207 25 -24 54 -43 64 -43 16 0 17 154
15 3141 l-3 3141 -575 0 c-316 -1 -584 -1 -596 -1 l-21 -1 2 -382 c2 -211 6
-849 10 -1418 4 -569 8 -1214 10 -1433 l2 -398 -31 28 c-17 15 -38 35 -47 43
-13 13 -172 159 -248 228 -63 58 -217 200 -247 227 -30 28 -173 160 -234 215
-15 14 -54 50 -87 80 -32 30 -101 93 -152 140 -52 47 -106 96 -121 110 -89 82
-236 217 -250 230 -9 8 -65 60 -125 115 -60 55 -119 109 -130 120 -12 11 -61
56 -110 100 -48 44 -102 94 -120 110 -47 44 -235 217 -259 238 -12 10 -63 58
-114 105 -51 48 -108 101 -126 117 -18 17 -75 68 -126 115 -51 47 -105 96
-120 110 -15 14 -67 61 -115 105 -48 44 -102 94 -119 110 -18 17 -77 71 -131
120 -54 50 -110 101 -125 115 -15 14 -67 62 -116 107 -49 44 -100 92 -115 105
-14 12 -69 64 -123 113 -54 50 -111 101 -126 115 -26 24 -195 179 -250 230
-92 85 -232 213 -284 262 -42 40 -69 57 -88 58 l-26 0 0 -3134z"/>
<path d="M2 14410 l3 -3145 563 0 c310 0 568 2 573 5 5 4 10 550 11 1345 l3
1340 160 -222 c88 -121 185 -255 215 -298 30 -43 60 -83 65 -89 6 -6 38 -49
70 -95 33 -46 72 -100 86 -120 14 -20 153 -212 310 -428 156 -215 291 -401
299 -413 8 -12 47 -65 86 -118 39 -54 144 -198 233 -322 90 -124 171 -236 181
-250 10 -14 55 -76 100 -137 77 -107 102 -129 113 -100 2 6 48 73 100 147 53
74 111 157 129 183 18 27 38 54 43 60 6 7 24 32 40 57 17 25 36 51 43 58 6 8
17 23 23 34 9 17 154 224 177 253 4 6 34 48 66 95 33 47 76 108 96 135 20 28
133 187 250 355 117 168 231 330 252 360 22 30 73 102 113 160 41 58 79 110
84 117 6 7 11 15 11 18 0 3 5 11 11 18 9 11 181 254 346 489 37 53 91 129 120
168 l51 71 0 -1428 c0 -785 1 -1433 1 -1438 1 -7 204 -10 594 -10 l592 0 0
3133 c0 1723 -2 3138 -6 3144 -4 5 -28 -21 -55 -58 -27 -38 -117 -163 -201
-279 -83 -115 -194 -268 -245 -339 -132 -182 -166 -230 -175 -241 -4 -6 -24
-33 -43 -60 -19 -28 -38 -51 -42 -53 -4 -2 -8 -10 -8 -17 0 -7 -4 -15 -8 -17
-4 -1 -59 -75 -122 -163 -63 -88 -119 -164 -123 -170 -4 -5 -29 -39 -54 -75
-26 -36 -63 -87 -83 -115 -95 -129 -321 -442 -382 -530 -23 -33 -46 -64 -51
-70 -7 -9 -73 -99 -242 -335 -163 -227 -340 -472 -430 -595 -126 -174 -400
-552 -440 -609 -16 -23 -93 -129 -170 -235 -77 -106 -147 -203 -155 -215 -8
-12 -37 -52 -64 -89 l-48 -68 -122 173 c-67 95 -232 328 -366 518 -134 190
-264 374 -289 410 -25 36 -93 133 -151 215 -59 83 -171 242 -250 355 -79 113
-146 207 -149 210 -4 3 -10 13 -16 22 -5 10 -64 93 -129 185 -120 169 -336
476 -368 523 -9 14 -51 72 -92 130 -41 58 -101 142 -133 188 -32 46 -69 98
-83 117 -14 18 -48 67 -76 107 -52 76 -182 260 -322 458 -45 63 -86 122 -92
130 -86 123 -415 587 -421 595 -5 5 -8 -1295 -7 -3135z"/>
<path d="M10647 17544 c-1 -2 -29 -5 -62 -8 -226 -22 -408 -57 -620 -120 -589
-174 -1138 -536 -1520 -1001 -22 -27 -51 -62 -65 -79 -50 -60 -210 -290 -210
-301 0 -2 -20 -36 -43 -77 -169 -284 -331 -734 -372 -1028 -2 -14 -8 -54 -14
-90 -21 -132 -25 -211 -25 -465 1 -276 16 -431 64 -650 39 -178 118 -428 181
-575 130 -301 355 -653 554 -866 173 -185 300 -302 440 -406 6 -4 24 -18 40
-31 76 -58 202 -139 325 -210 376 -216 843 -358 1293 -394 167 -14 518 -7 627
11 14 3 48 7 75 11 28 3 73 10 100 15 28 5 62 12 77 14 106 18 358 91 493 143
50 19 104 40 120 46 17 7 98 46 180 87 745 375 1311 1026 1576 1815 58 170
117 428 135 580 3 33 8 68 10 78 23 125 22 502 -1 702 -10 91 -51 321 -69 393
-3 12 -8 31 -10 42 -10 43 -59 199 -88 280 -85 234 -172 410 -331 664 -15 25
-14 23 -89 126 -54 76 -85 114 -178 224 -75 89 -275 280 -388 372 -13 10 -33
27 -45 38 -12 10 -42 32 -67 49 -25 17 -47 33 -50 37 -8 9 -187 122 -268 169
-64 37 -230 119 -332 163 -143 63 -393 142 -545 174 -60 13 -248 44 -297 50
-31 3 -74 8 -95 11 -42 4 -502 11 -506 7z m503 -893 c81 -11 99 -14 162 -26
311 -58 678 -225 943 -429 507 -391 834 -991 882 -1618 12 -158 6 -399 -12
-489 -3 -13 -7 -39 -10 -58 -12 -90 -19 -120 -51 -239 -118 -431 -346 -798
-689 -1107 -42 -39 -84 -74 -93 -79 -9 -5 -26 -18 -37 -29 -44 -42 -237 -161
-355 -219 -69 -33 -133 -65 -144 -70 -20 -10 -198 -75 -206 -75 -3 0 -32 -8
-65 -18 -73 -21 -277 -60 -365 -71 -36 -4 -137 -8 -226 -9 -608 -6 -1183 227
-1615 655 -300 298 -498 640 -604 1044 -56 215 -73 357 -70 606 2 118 5 224 8
235 2 11 8 45 12 75 47 374 250 822 515 1135 33 39 206 212 250 250 225 196
515 358 800 447 36 11 67 20 70 20 3 1 25 6 50 14 70 20 247 52 330 59 41 4
76 8 78 10 8 7 367 -4 442 -14z"/>
<path d="M18488 17545 c-2 -2 -43 -5 -93 -9 -49 -3 -99 -8 -110 -10 -11 -2
-47 -7 -80 -11 -54 -6 -92 -12 -175 -30 -14 -2 -50 -10 -80 -16 -120 -25 -368
-105 -515 -167 -297 -124 -618 -324 -845 -526 -75 -67 -303 -298 -345 -350
-22 -27 -48 -58 -59 -70 -10 -11 -32 -41 -49 -66 -17 -25 -34 -47 -37 -50 -15
-11 -131 -193 -186 -290 -206 -364 -333 -744 -389 -1160 -26 -200 -27 -633 -1
-790 3 -14 7 -43 10 -65 27 -195 107 -510 165 -650 5 -11 23 -56 41 -100 126
-304 315 -612 520 -850 151 -175 408 -406 595 -537 395 -275 921 -482 1360
-534 22 -3 47 -7 55 -9 33 -9 244 -20 395 -19 256 0 418 17 660 69 99 21 145
33 305 80 59 17 185 65 285 108 355 153 702 390 975 666 144 146 147 150 318
366 23 29 165 250 199 310 94 163 202 410 256 582 29 91 93 339 101 393 7 41
24 158 31 215 25 190 25 564 -1 745 -24 177 -51 316 -85 434 -11 39 -22 80
-24 90 -42 177 -206 540 -346 764 -68 110 -228 328 -294 402 -74 83 -269 276
-330 326 -33 27 -71 59 -85 72 -40 36 -204 151 -314 220 -114 71 -311 172
-431 222 -44 18 -89 37 -100 42 -112 49 -476 147 -610 163 -27 4 -57 8 -65 10
-8 3 -44 7 -80 10 -36 4 -76 9 -90 11 -25 6 -447 13 -452 9z m416 -889 c51 -5
110 -14 192 -30 139 -27 323 -84 459 -141 87 -37 326 -165 345 -185 3 -3 34
-25 70 -49 232 -158 468 -408 624 -660 77 -125 195 -369 211 -436 1 -5 5 -19
9 -30 19 -50 34 -98 52 -170 8 -31 45 -218 49 -247 25 -183 25 -475 0 -638
-52 -335 -181 -671 -361 -940 -42 -63 -79 -117 -83 -120 -4 -3 -22 -25 -41
-50 -76 -99 -174 -198 -320 -325 -250 -217 -696 -429 -1010 -480 -19 -3 -48
-8 -63 -11 -85 -18 -230 -28 -377 -28 -127 -1 -294 9 -322 19 -7 2 -31 6 -53
9 -54 7 -93 15 -140 28 -22 5 -51 12 -65 15 -50 8 -267 86 -355 126 -155 72
-351 187 -446 264 -163 132 -323 289 -404 398 -17 22 -35 45 -41 52 -18 19
-119 173 -153 233 -40 71 -119 234 -138 285 -8 22 -19 49 -23 60 -12 27 -68
207 -74 236 -3 13 -10 49 -15 79 -6 30 -13 66 -16 80 -3 14 -7 43 -10 65 -3
22 -8 51 -11 65 -10 44 -12 402 -3 485 76 687 418 1260 991 1663 42 28 79 52
83 52 5 0 16 6 24 14 18 16 273 146 287 146 5 0 21 6 35 14 107 56 438 136
623 152 39 3 72 7 73 8 5 5 339 -2 397 -8z"/>
<path d="M18027 14283 c1 -560 2 -1024 2 -1031 1 -16 -29 -32 411 223 179 103
345 199 369 213 25 14 68 38 95 55 28 16 71 41 95 54 35 20 401 231 586 339
22 13 82 47 133 75 50 29 92 55 92 58 -1 5 -210 128 -429 252 -67 38 -93 53
-336 194 -121 70 -299 172 -395 227 -96 55 -187 109 -202 119 -15 11 -29 19
-32 19 -3 0 -71 39 -153 86 -175 102 -231 134 -235 134 -2 0 -2 -458 -1 -1017z"/>
</g>
</svg>
