<svg width="111" height="33" viewBox="0 0 111 33" fill="none" xmlns="http://www.w3.org/2000/svg">
<path d="M105.276 0H6.52728C3.3657 0 0.802734 2.56296 0.802734 5.72454V27.1916C0.802734 30.3531 3.3657 32.9161 6.52728 32.9161H105.276C108.437 32.9161 111 30.3531 111 27.1916V5.72454C111 2.56296 108.437 0 105.276 0Z" fill="#070606"/>
<path fill-rule="evenodd" clip-rule="evenodd" d="M36.5206 9.36367H37.18C37.4094 9.39215 37.6404 9.32381 37.817 9.17511C37.9936 9.02642 38.0997 8.81103 38.1098 8.58098C38.1098 8.12817 37.7675 7.83564 37.1872 7.83564C36.9523 7.80294 36.714 7.8662 36.5266 8.01103C36.3392 8.15586 36.2185 8.36996 36.192 8.60466H35.468C35.4932 8.17833 35.6952 7.78162 36.0256 7.50927C36.356 7.237 36.7852 7.11358 37.2106 7.16859C38.1815 7.16859 38.8652 7.70985 38.8652 8.48896C38.8699 9.02685 38.4965 9.49483 37.9693 9.61204V9.66986C38.6008 9.69776 39.0909 10.2284 39.0662 10.8572C39.0208 11.2959 38.8 11.6979 38.4534 11.9726C38.1069 12.2473 37.6639 12.3713 37.2243 12.317C36.7838 12.3768 36.3378 12.2558 35.9885 11.9819C35.6393 11.7079 35.4168 11.3045 35.372 10.8641H36.1073C36.1517 11.3338 36.5851 11.6367 37.2243 11.6367C37.8636 11.6367 38.2809 11.2964 38.2809 10.8167C38.2809 10.3301 37.8878 10.0304 37.2009 10.0304H36.5206V9.36367ZM41.2858 10.0439C40.4012 10.0985 39.9016 10.483 39.9016 11.15C39.9029 11.4663 40.0384 11.7673 40.2748 11.9786C40.5111 12.1899 40.8262 12.2917 41.1422 12.259C41.5929 12.2797 42.0199 12.0575 42.26 11.6772H42.3181V12.198H43.0259V9.66614C43.0259 8.88345 42.4997 8.42098 41.5667 8.42098C40.7224 8.42098 40.1204 8.82921 40.0453 9.46563H40.7564C40.8387 9.20366 41.122 9.05383 41.532 9.05383C42.0348 9.05383 42.2939 9.27479 42.2939 9.66614V9.986L41.2858 10.0439ZM42.2939 10.5236V10.8334C42.2779 11.0696 42.1662 11.2891 41.9846 11.4418C41.8029 11.5945 41.5667 11.6673 41.3302 11.6435C40.9307 11.6435 40.6401 11.4494 40.6401 11.1159C40.6401 10.7892 40.8726 10.6156 41.3851 10.5815L42.2939 10.5236ZM44.9749 12.198V9.10814H46.6909V8.49261H44.2405V12.198H44.9749ZM49.6045 12.2591C50.544 12.2591 51.1421 11.521 51.1421 10.3437C51.1421 9.16603 50.544 8.43114 49.5973 8.43114C49.1115 8.41919 48.66 8.67951 48.4286 9.10499H48.3737V8.49261H47.6667V13.43H48.4011V11.6367H48.4592C48.6869 12.0483 49.1337 12.2911 49.6045 12.2591ZM49.3923 9.08803C50.0145 9.08803 50.3866 9.56102 50.3866 10.3437C50.3866 11.1296 50.0145 11.6026 49.389 11.6026C48.774 11.6026 48.3874 11.1192 48.3874 10.3469C48.3874 9.57104 48.7741 9.08803 49.3923 9.08803ZM52.1207 12.8956V13.5253C52.1893 13.5353 52.3637 13.5421 52.425 13.5421C53.1837 13.5421 53.5356 13.2528 53.8536 12.3512L55.241 8.49261H54.4621L53.5323 11.4358H53.4742L52.5412 8.49261H51.7413L53.0884 12.2117L53.0335 12.3921C52.9745 12.7103 52.6844 12.9331 52.3604 12.9092C52.2803 12.9102 52.2002 12.9057 52.1207 12.8956ZM55.8133 11.1465H56.5445C56.6163 11.4732 56.9238 11.6435 57.354 11.6435C57.8431 11.6435 58.1434 11.4289 58.1434 11.0955C58.1434 10.7383 57.8738 10.5679 57.354 10.5679H56.7971V9.99973H57.3443C57.7882 9.99973 58.0142 9.82979 58.0142 9.51995C58.0142 9.24796 57.7955 9.04023 57.3443 9.04023C56.9335 9.04023 56.6332 9.21383 56.5856 9.50635H55.8778C55.9879 8.8071 56.6401 8.32438 57.3443 8.42105C58.2289 8.42105 58.735 8.81926 58.735 9.44524C58.7435 9.80453 58.4985 10.1207 58.1474 10.2039V10.2617C58.5673 10.3157 58.8802 10.6739 58.8754 11.0955C58.8754 11.7999 58.2733 12.2659 57.354 12.2659C56.5412 12.2659 55.881 11.8951 55.8133 11.1465ZM59.9326 8.49261V12.198L60.6607 12.1981L62.379 9.63572H62.4338V12.198H63.1619V8.49261H62.4338L60.7188 11.0412H60.6607V8.49261H59.9326ZM67.1725 9.10814H66.0005V12.198H65.2652V9.10814H64.0932V8.49261H67.1725V9.10814ZM71.1293 11.1975C70.9227 11.8964 70.2433 12.3479 69.5159 12.2695C69.0196 12.2826 68.5426 12.0777 68.2116 11.7094C67.8805 11.3411 67.7288 10.8465 67.7967 10.3569C67.7306 9.86592 67.8818 9.37054 68.211 8.99916C68.5402 8.6277 69.0151 8.41683 69.5126 8.42105C70.5482 8.42105 71.1736 9.12545 71.1736 10.289V10.5442H68.5457V10.5851C68.5222 10.8602 68.6164 11.1323 68.8052 11.3345C68.9939 11.5366 69.2596 11.65 69.5369 11.6467C69.8959 11.6895 70.2453 11.512 70.4214 11.1975H71.1293ZM68.5457 10.0033H70.4247C70.4434 9.752 70.3547 9.50442 70.1804 9.32166C70.0062 9.13883 69.7625 9.0378 69.5094 9.04345C69.2527 9.03994 69.0055 9.13998 68.8239 9.3208C68.6425 9.50156 68.5421 9.74771 68.5457 10.0033ZM74.2427 8.49261H75.9207C76.6484 8.49261 77.0756 8.85983 77.0756 9.43479C77.0778 9.81082 76.8159 10.1372 76.4467 10.2176V10.2754C76.8982 10.3038 77.2481 10.6793 77.2424 11.1296C77.2424 11.7761 76.7544 12.198 75.9372 12.198H74.2427V8.49261ZM74.9704 9.0539V10.0134H75.6989C76.1425 10.0134 76.3551 9.84345 76.3551 9.53004C76.3551 9.24116 76.1697 9.0539 75.7805 9.0539H74.9704ZM74.9704 11.6367V10.5511H75.7497C76.2449 10.5511 76.5082 10.7246 76.5082 11.0955C76.5082 11.4459 76.2756 11.6367 75.8413 11.6367H74.9704ZM65.4245 22.3514C65.5383 23.3647 66.527 24.0301 67.8781 24.0301C69.1727 24.0301 70.1041 23.3647 70.1041 22.451C70.1041 21.6578 69.5424 21.1828 68.2122 20.8574L66.8821 20.5383C64.9975 20.0851 64.1226 19.2075 64.1226 17.7835C64.1226 16.0204 65.6658 14.8094 67.8571 14.8094C70.0258 14.8094 71.5125 16.0204 71.5625 17.7835H70.0121C69.9193 16.7638 69.0726 16.1482 67.8353 16.1482C66.598 16.1482 65.7514 16.771 65.7514 17.6775C65.7514 18.3999 66.2921 18.825 67.6149 19.1505L68.7457 19.4269C70.8514 19.9227 71.7263 20.7649 71.7263 22.2596C71.7263 24.1715 70.1969 25.3688 67.7642 25.3688C65.4882 25.3688 63.9515 24.1996 63.8522 22.3513L65.4245 22.3514ZM37.2068 22.4367H41.1189L42.0575 25.1987H43.7428L40.0374 14.9799H38.3158L34.6104 25.1987H36.2673L37.2068 22.4367ZM40.7129 21.1621H37.612L39.1415 16.6796H39.1843L40.7129 21.1621ZM48.6226 25.2765C50.5007 25.2765 51.7453 23.7889 51.7453 21.4737C51.7453 19.1649 50.4934 17.6702 48.5943 17.6702C47.6171 17.6388 46.7017 18.1449 46.2118 18.9873H46.1835V17.7482H44.6968V27.6632H46.2327V23.973H46.2682C46.7374 24.8207 47.6518 25.327 48.6226 25.2765ZM48.1892 18.9737C49.3837 18.9737 50.1666 19.9654 50.1666 21.4737C50.1666 22.9958 49.3837 23.9802 48.1892 23.9802C47.0156 23.9802 46.2263 22.9749 46.2263 21.4737C46.2263 19.9863 47.0156 18.9737 48.1892 18.9737ZM59.9813 21.4737C59.9813 23.7889 58.7367 25.2765 56.8586 25.2765C55.8878 25.327 54.9733 24.8207 54.5043 23.973H54.4687V27.6632H52.9328V17.7481H54.4195V18.9873H54.4477C54.9377 18.1449 55.8531 17.6388 56.8303 17.6702C58.7295 17.6702 59.9813 19.1649 59.9813 21.4737ZM58.4026 21.4737C58.4026 19.9654 57.6197 18.9737 56.4251 18.9737C55.2516 18.9737 54.4623 19.9862 54.4623 21.4737C54.4623 22.9749 55.2516 23.9802 56.4251 23.9802C57.6197 23.9802 58.4026 22.9958 58.4026 21.4737ZM75.0406 17.7482V15.9851H73.4978V17.7482H72.4094V18.9593H73.4978V23.2297C73.4978 24.6745 74.0881 25.2411 75.6037 25.2411C75.8892 25.2464 76.1755 25.2227 76.4567 25.1704V23.9665C76.2885 23.9872 76.1204 23.999 75.9515 24.002C75.3261 24.002 75.0406 23.7046 75.0406 23.0666V18.9593H76.4638V17.7482H75.0406ZM80.8367 17.6566C78.6742 17.6566 77.2882 19.1297 77.2882 21.4738C77.2882 23.8244 78.6606 25.291 80.8367 25.291C83.0134 25.291 84.3866 23.8244 84.3866 21.4738C84.3866 19.1296 83.0063 17.6566 80.8367 17.6566ZM80.8367 18.9166C82.081 18.9166 82.8217 19.8658 82.8217 21.4738C82.8217 23.0883 82.081 24.0301 80.8367 24.0301C79.5923 24.0301 78.8531 23.0883 78.8531 21.4738C78.8531 19.873 79.5923 18.9166 80.8367 18.9166ZM87.1172 17.7481H85.6524V25.1984H87.1888V20.7793C87.1372 20.3322 87.2854 19.8852 87.5931 19.5557C87.9008 19.2262 88.3372 19.047 88.7888 19.0652C89.0228 19.0585 89.2553 19.0897 89.4793 19.1576V17.7272C89.3061 17.6887 89.1301 17.6695 88.9526 17.6701C88.1083 17.6381 87.3576 18.1999 87.153 19.0162H87.1172V17.7481ZM93.3391 25.2909C95.0314 25.2909 96.3545 24.3628 96.5613 23.0103H95.1022C94.8224 23.7016 94.1198 24.1278 93.3741 24.0582C92.8153 24.0787 92.275 23.8591 91.89 23.4553C91.5044 23.0516 91.3119 22.5026 91.3612 21.9479V21.8555H96.6464V21.3315C96.6464 19.0726 95.3448 17.6566 93.2747 17.6566C91.1695 17.6566 89.8113 19.1722 89.8113 21.5091C89.8113 23.8388 91.1623 25.2909 93.3391 25.2909ZM95.1101 20.7867H91.3691C91.3677 20.2837 91.568 19.801 91.9258 19.4459C92.2836 19.0908 92.7695 18.8927 93.2747 18.8957C93.7756 18.8851 94.2586 19.083 94.6071 19.4419C94.9555 19.8009 95.1373 20.2883 95.1101 20.7867Z" fill="#EFEFEF"/>
<path fill-rule="evenodd" clip-rule="evenodd" d="M21.924 7.25663C21.1673 8.11782 20.784 9.24441 20.8584 10.3883C22.029 10.4003 23.1404 9.8749 23.874 8.96255C24.63 8.05492 25.0025 6.88829 24.9123 5.71045C23.7572 5.83177 22.6903 6.38383 21.924 7.25663ZM27.7245 23.4788C28.345 22.599 28.8224 21.6266 29.1391 20.5977C27.4922 19.9011 26.4213 18.2873 26.4194 16.4991C26.4398 14.9186 27.2683 13.4587 28.6149 12.6308C27.7616 11.4121 26.3835 10.6671 24.8965 10.6206C23.9395 10.5201 23.0005 10.8929 22.2329 11.1975C21.7457 11.3908 21.3277 11.5568 21.018 11.5568C20.6659 11.5568 20.2359 11.384 19.754 11.1905C19.1239 10.9374 18.4052 10.6487 17.6562 10.6641C15.9171 10.7203 14.3351 11.6851 13.4889 13.2056C11.6871 16.3252 13.0311 20.9099 14.7571 23.4315C15.6207 24.6663 16.6299 26.0456 17.9505 25.9966C18.5496 25.9718 18.9746 25.7929 19.4137 25.6082C19.9217 25.3943 20.4485 25.1727 21.2853 25.1727C22.0743 25.1727 22.5785 25.3874 23.0624 25.5936C23.5263 25.7911 23.9714 25.9808 24.6309 25.9656C26.0176 25.943 26.8912 24.7253 27.7245 23.4788Z" fill="#EFEFEF"/>
</svg>
