<svg width="111" height="33" viewBox="0 0 111 33" fill="none" xmlns="http://www.w3.org/2000/svg">
<path d="M104.473 0H5.72454C2.56296 0 0 2.56296 0 5.72454V27.1916C0 30.3531 2.56296 32.9161 5.72454 32.9161H104.473C107.634 32.9161 110.197 30.3531 110.197 27.1916V5.72454C110.197 2.56296 107.634 0 104.473 0Z" fill="#070606"/>
<path fill-rule="evenodd" clip-rule="evenodd" d="M46.8714 6.45455L46.7254 6.45336L46.5501 6.45583C46.2572 6.46966 45.9682 6.53258 45.6954 6.64236C45.368 6.7741 45.0706 6.97059 44.821 7.22008C44.5717 7.4691 44.3755 7.76613 44.2441 8.09322C44.1129 8.4203 44.0494 8.77057 44.0572 9.12292C44.0494 9.46618 44.1129 9.81645 44.2441 10.1435C44.3755 10.4706 44.5717 10.7677 44.821 11.0167C45.0706 11.2663 45.3681 11.463 45.6956 11.5949C46.0231 11.7268 46.374 11.7911 46.727 11.784L46.9244 11.7772L47.0593 11.7678L47.2278 11.7443C47.4512 11.7058 47.67 11.6391 47.879 11.5453C48.2143 11.3865 48.5074 11.1586 48.7412 10.8758L48.8583 10.7344L48.1434 10.0208L48.0027 10.1961L47.9048 10.3075C47.7681 10.4499 47.607 10.5671 47.4286 10.6536C47.2057 10.7616 46.9615 10.8187 46.7138 10.8208C46.2754 10.8322 45.8549 10.6656 45.5472 10.3599C45.2457 10.0313 45.0749 9.59269 45.0749 9.13752C45.0749 8.68227 45.2457 8.2437 45.5536 7.90839C45.6998 7.76363 45.8816 7.64463 46.0814 7.56527C46.2814 7.48591 46.4952 7.44785 46.7103 7.45336C46.9446 7.44255 47.1632 7.48448 47.3632 7.5755C47.563 7.66652 47.7383 7.80391 47.8742 7.97636L48.0118 8.15089L48.7343 7.45751L48.614 7.31311L48.5115 7.19783C48.2994 6.97428 48.0457 6.79347 47.7642 6.66587C47.4825 6.53825 47.1793 6.46668 46.8714 6.45455ZM52.5838 6.56284L52.5844 6.55535H48.9276V7.54116L50.2539 7.54101L50.2545 11.6814H51.2651L51.265 7.54101L52.5844 7.54116L52.5838 6.72241L54.1809 10.2509L54.0149 10.6136C53.9808 10.6779 53.9379 10.7309 53.8861 10.7747C53.8485 10.7943 53.7742 10.8119 53.6999 10.8064C53.6102 10.8053 53.5354 10.7849 53.4695 10.7468L53.2448 10.6167L52.9693 11.5941L53.1304 11.6645L53.2364 11.7059C53.3797 11.7553 53.5304 11.7815 53.6825 11.7833C53.9814 11.7709 54.2586 11.6698 54.4866 11.4935C54.7147 11.3172 54.8825 11.0745 54.9669 10.7989L56.8776 6.55535H55.7135L54.7069 8.95641L53.6751 6.56285L52.5838 6.56284ZM62.5688 8.57859L62.5689 6.55535H61.5583V11.6814H62.5689L62.5688 9.54818H64.5338L64.5344 11.6814H65.545V6.55535H64.5344L64.5338 8.57859H62.5688ZM37.9089 10.6952L37.9094 6.55535H34.3486V9.09516L34.3614 9.2543C34.3733 9.51684 34.339 9.76607 34.2604 10.0033L34.2082 10.1435L34.146 10.2791C34.0789 10.4124 33.9974 10.538 33.9029 10.6538L33.8588 10.7031H33.2512V12.6806H34.2391L34.2388 11.6813H37.4503L37.4506 12.6732H38.4387V10.6956L37.9089 10.6952ZM69.5899 6.64304C69.2673 6.50896 68.9214 6.43994 68.5721 6.43994C68.2227 6.43994 67.8768 6.50897 67.5542 6.64304C67.2316 6.77709 66.9387 6.97355 66.6921 7.22123C66.2049 7.735 65.9351 8.41143 65.9351 9.11462C65.9351 9.81781 66.2049 10.4942 66.6888 11.0046C67.1931 11.5043 67.8683 11.7822 68.5721 11.7822C69.2758 11.7822 69.951 11.5043 70.4509 11.009C70.9407 10.4955 71.2117 9.81852 71.2117 9.11462C71.2117 8.41071 70.9407 7.73379 70.4549 7.2243C70.2055 6.97363 69.9125 6.77713 69.5899 6.64304ZM42.2378 6.64331C41.9153 6.50929 41.5694 6.44032 41.2202 6.44032C40.871 6.44032 40.5251 6.50929 40.2025 6.6433C39.88 6.77732 39.5872 6.9737 39.3408 7.22115C38.8535 7.735 38.5838 8.41143 38.5838 9.11462C38.5838 9.81788 38.8535 10.4943 39.3374 11.0046C39.8416 11.5041 40.5167 11.7818 41.2202 11.7818C41.9237 11.7818 42.5988 11.5041 43.0986 11.0091C43.5885 10.4955 43.8595 9.81852 43.8595 9.11462C43.8595 8.41071 43.5885 7.73379 43.1027 7.2243C42.8532 6.97371 42.5603 6.77732 42.2378 6.64331ZM76.2977 6.96657C76 6.69589 75.6058 6.54767 75.1986 6.55539L73.288 6.55535V11.6849L75.3088 11.6499L75.4483 11.6457C75.8183 11.6186 76.1746 11.4665 76.4523 11.2115C76.7714 10.9346 76.9525 10.5249 76.9432 10.0974C76.9489 9.81516 76.853 9.53079 76.6727 9.30067L76.5954 9.20907L76.511 9.12471L76.4201 9.04786L76.3442 8.99362L76.4144 8.93022L76.4959 8.84113L76.5689 8.74446C76.7099 8.53301 76.7822 8.28728 76.7779 8.03683C76.7864 7.63189 76.6104 7.23697 76.2977 6.96657ZM60.8799 11.6814V6.55535H57.0507V11.6814H58.0613L58.0607 7.54101H59.869L59.8694 11.6814H60.8799ZM67.4347 7.9003C67.732 7.60584 68.1433 7.43647 68.5721 7.43647C69.0007 7.43647 69.412 7.60584 69.7164 7.90774C70.0127 8.2334 70.1809 8.66782 70.1809 9.11841C70.1809 9.569 70.0127 10.0034 69.7093 10.3365C69.0836 10.9572 68.0605 10.9572 67.4277 10.3291C67.1314 10.0034 66.9632 9.56893 66.9632 9.11841C66.9632 8.66782 67.1314 8.23347 67.4347 7.9003ZM40.0825 7.9003C40.3799 7.60563 40.7913 7.43611 41.2202 7.43611C41.6491 7.43611 42.0604 7.60563 42.365 7.90767C42.6612 8.23347 42.8294 8.66782 42.8294 9.11841C42.8294 9.56893 42.6613 10.0034 42.3579 10.3365C41.7321 10.9573 40.709 10.9573 40.0755 10.329C39.7791 10.0034 39.6109 9.56893 39.6109 9.11841C39.6109 8.66782 39.7791 8.2334 40.0825 7.9003ZM35.335 7.54101H36.8506V10.7267H35.0202L35.1102 10.5194C35.2853 10.0723 35.3629 9.59054 35.3348 9.10668L35.335 7.54101ZM74.302 10.6952L74.3199 9.53244L75.321 9.53294L75.3947 9.53752C75.6852 9.57358 75.9084 9.81988 75.9084 10.1184C75.9063 10.2638 75.8476 10.406 75.7439 10.5138C75.6873 10.5774 75.6236 10.6231 75.5528 10.6535C75.482 10.6839 75.4054 10.6984 75.3281 10.6957L74.302 10.6952ZM74.3034 8.57859L74.3263 7.51668L75.2637 7.51704L75.3338 7.52012C75.3796 7.52556 75.4247 7.53765 75.4677 7.55618C75.5321 7.58395 75.5893 7.62552 75.6358 7.67783C75.6888 7.733 75.726 7.78989 75.7503 7.85221C75.7746 7.91461 75.7854 7.9813 75.7839 8.04828C75.7818 8.11526 75.766 8.18109 75.7381 8.24191C75.7095 8.30259 75.6694 8.35712 75.6201 8.40206C75.5056 8.52499 75.361 8.58474 75.2108 8.5788L74.3034 8.57859ZM52.2211 19.3537C52.8471 18.7245 53.6973 18.3694 54.5849 18.3664V18.3672C55.0282 18.3585 55.4688 18.439 55.8805 18.6038C56.2922 18.7687 56.6665 19.0145 56.9815 19.3267C57.2958 19.6385 57.544 20.0104 57.7113 20.4202C57.8786 20.83 57.9616 21.2694 57.9553 21.712C57.9538 22.5996 57.6004 23.4502 56.9724 24.0774C56.3445 24.7045 55.4934 25.0567 54.6058 25.057C53.7184 25.0595 52.8662 24.7099 52.2362 24.0847C51.6063 23.4596 51.2501 22.61 51.246 21.7226C51.2444 20.835 51.5951 19.983 52.2211 19.3537ZM53.4184 23.4717C53.7714 23.6768 54.1777 23.7714 54.5849 23.7428C54.8439 23.737 55.0992 23.6794 55.3357 23.5734C55.5722 23.4675 55.7851 23.3153 55.962 23.1259C56.1384 22.9368 56.2751 22.7143 56.3639 22.4714C56.4527 22.2285 56.4919 21.9704 56.4792 21.712C56.4778 21.3041 56.3537 20.906 56.1229 20.5696C55.8922 20.2333 55.5654 19.9741 55.1853 19.826C54.8049 19.6773 54.3887 19.6462 53.9905 19.7366C53.5922 19.8271 53.2302 20.035 52.9514 20.3335C52.6733 20.6315 52.4916 21.0065 52.4299 21.4094C52.3682 21.8124 52.4295 22.2246 52.6058 22.5921C52.7825 22.9601 53.0656 23.2665 53.4184 23.4717ZM44.8689 19.349C45.4965 18.7206 46.348 18.3672 47.2361 18.3664L47.2355 18.3671C47.6763 18.3595 48.1142 18.44 48.5235 18.6038C48.9352 18.7687 49.3096 19.0145 49.6245 19.3267C49.9388 19.6385 50.187 20.0104 50.3544 20.4202C50.5217 20.83 50.6046 21.2694 50.5983 21.712C50.5983 23.5584 49.0983 25.0562 47.2466 25.057C46.3586 25.059 45.5062 24.7083 44.8766 24.0821C44.247 23.4559 43.8917 22.6053 43.889 21.7173C43.8888 20.8292 44.2412 19.9773 44.8689 19.349ZM46.0674 23.476C46.4214 23.6801 46.8286 23.7731 47.2361 23.7428H47.2354H47.2279C47.487 23.737 47.7422 23.6794 47.9787 23.5734C48.2152 23.4675 48.4281 23.3153 48.605 23.1259C48.7815 22.9369 48.9183 22.7143 49.0072 22.4715C49.0963 22.2286 49.1356 21.9704 49.123 21.712C49.1214 21.3037 48.9968 20.9055 48.7655 20.569C48.5341 20.2325 48.2067 19.9736 47.8261 19.826C47.4454 19.6778 47.0288 19.6472 46.6306 19.7384C46.2323 19.8295 45.8706 20.0381 45.5922 20.3372C45.3143 20.636 45.1331 21.0116 45.0723 21.4149C45.0114 21.8184 45.0737 22.2308 45.2511 22.5981C45.429 22.966 45.7134 23.2718 46.0674 23.476ZM38.4818 20.8147V19.3979L43.2735 19.3582C43.3285 19.6516 43.3549 19.9495 43.3523 20.248C43.389 21.4733 42.9472 22.6646 42.1206 23.5697C41.6529 24.0577 41.0863 24.4402 40.4586 24.6914C39.8311 24.9426 39.1571 25.0567 38.4818 25.0263C37.5444 25.063 36.6143 24.8467 35.7894 24.3997C34.9646 23.9528 34.2754 23.2919 33.7943 22.4864C33.3144 21.6823 33.061 20.7632 33.061 19.8267C33.061 18.8902 33.3144 17.9712 33.7943 17.167C34.2755 16.3617 34.9647 15.7009 35.7896 15.2541C36.6145 14.8073 37.5444 14.591 38.4818 14.6279C39.1459 14.6221 39.8045 14.7494 40.4187 15.0022C41.0328 15.2551 41.5901 15.6284 42.0576 16.1003L41.0554 17.0995C40.3628 16.433 39.4346 16.0679 38.4736 16.0837C37.9767 16.083 37.4846 16.1802 37.0253 16.3698C36.566 16.5592 36.1486 16.8373 35.7967 17.1882C35.4449 17.539 35.1657 17.9557 34.9749 18.4145C34.7841 18.8732 34.6856 19.3651 34.6849 19.8619C34.6856 20.3588 34.7841 20.8506 34.9749 21.3094C35.1657 21.7681 35.4449 22.1849 35.7967 22.5357C36.1486 22.8866 36.566 23.1646 37.0253 23.3541C37.4846 23.5437 37.9767 23.6409 38.4736 23.6401C38.96 23.6597 39.4451 23.5773 39.8979 23.3983C40.3505 23.2195 40.7609 22.9479 41.1026 22.6011C41.56 22.112 41.8383 21.4823 41.8919 20.8147H38.4818ZM73.1428 18.9865C73.6558 19.3674 74.0415 19.8952 74.2483 20.4999L74.4136 20.8537L69.9218 22.7038C70.0598 23.0167 70.2888 23.2809 70.5789 23.462C70.869 23.6431 71.2068 23.733 71.5486 23.7196C71.8805 23.7206 72.2068 23.6354 72.4959 23.4726C72.7857 23.3096 73.0276 23.0745 73.1986 22.79L74.3428 23.5772C74.0351 24.0354 73.6193 24.4104 73.1313 24.6688C72.644 24.9272 72.1002 25.0608 71.5486 25.0578C71.1075 25.0643 70.6696 24.982 70.261 24.816C69.8523 24.6498 69.4813 24.4032 69.1699 24.0907C68.8591 23.7788 68.6145 23.4074 68.4508 22.9986C68.2871 22.5899 68.2076 22.1523 68.2171 21.712C68.1903 21.2821 68.2521 20.8513 68.3987 20.4462C68.5453 20.0411 68.7737 19.6705 69.0695 19.3575C69.3657 19.0437 69.7231 18.7939 70.1195 18.6235C70.516 18.4531 70.9431 18.3656 71.3746 18.3664C72.0129 18.3893 72.6297 18.6056 73.1428 18.9865ZM69.7666 20.8989C69.6868 21.1297 69.654 21.374 69.6699 21.6176L72.6691 20.3739C72.5531 20.1467 72.3735 19.9585 72.1517 19.8326C71.9299 19.7067 71.6766 19.6486 71.4218 19.6655C71.1776 19.6765 70.938 19.7359 70.7171 19.8404C70.496 19.9449 70.2981 20.0924 70.1347 20.2743C69.9716 20.4559 69.8464 20.6682 69.7666 20.8989ZM67.499 24.8605H66.0229H66.0222V15.0215H67.499V24.8605ZM63.5521 19.1145H63.6075V18.5635H64.9652V24.521C64.9652 26.9926 63.5363 28.0083 61.8077 28.0083C61.1714 28.0126 60.5482 27.8269 60.018 27.475C59.4879 27.1231 59.0748 26.6211 58.8316 26.033L60.118 25.497C60.25 25.8404 60.4811 26.1368 60.7819 26.3486C61.0828 26.5602 61.4399 26.6777 61.8077 26.686C62.9127 26.686 63.5993 26.0015 63.5993 24.7181V24.2384H63.5521C63.3326 24.4907 63.0606 24.6918 62.7551 24.8278C62.4496 24.9638 62.118 25.0313 61.7837 25.0255C60.9224 24.9848 60.1098 24.6145 59.5142 23.9911C58.9186 23.3677 58.5856 22.539 58.5842 21.6768C58.5854 20.8145 58.9183 19.9857 59.5139 19.3621C60.1096 18.7385 60.9223 18.3681 61.7837 18.3274C62.1172 18.3268 62.4471 18.3967 62.7519 18.5323C63.0566 18.6679 63.3293 18.8664 63.5521 19.1145ZM61.9155 23.7426C61.408 23.6981 60.9353 23.4653 60.5906 23.0899C60.2454 22.7141 60.0535 22.2225 60.0527 21.712C60.0527 20.6551 60.8624 19.7742 61.9179 19.6813C62.1702 19.6941 62.4174 19.7572 62.645 19.8669C62.8726 19.9766 63.076 20.1306 63.2433 20.32C63.5806 20.7023 63.7492 21.2046 63.7103 21.712C63.7318 21.9647 63.7016 22.219 63.6217 22.4596C63.5418 22.7002 63.4138 22.9221 63.2455 23.1116C63.077 23.3015 62.8719 23.4553 62.6425 23.5638C62.4146 23.6715 62.1674 23.7323 61.9155 23.7426ZM77.6344 15.0215H81.1629H81.1707C81.7332 14.9811 82.2949 15.096 82.7958 15.3536C83.2974 15.6111 83.7182 16.0014 84.0122 16.4818C84.3056 16.9616 84.4609 17.5131 84.4609 18.0755C84.4609 18.638 84.3056 19.1895 84.0122 19.6693C83.7182 20.1497 83.2974 20.54 82.7958 20.7975C82.2949 21.0551 81.7332 21.1699 81.1707 21.1296H79.1106V24.8605H77.6344V15.0215ZM79.1027 19.7442H81.1629L81.1943 19.7675C81.4162 19.7679 81.6359 19.7246 81.8412 19.6399C82.0466 19.5553 82.2333 19.431 82.3908 19.2742C82.5482 19.1175 82.6727 18.9312 82.7579 18.7262C82.843 18.5212 82.8874 18.3014 82.8874 18.0793C82.8874 17.8572 82.843 17.6374 82.7579 17.4324C82.6727 17.2274 82.5482 17.0411 82.3908 16.8844C82.2333 16.7276 82.0466 16.6033 81.8412 16.5187C81.6359 16.4341 81.4162 16.3907 81.1943 16.3911H79.1027V19.7442ZM88.7257 18.6874C89.1922 18.4203 89.7275 18.2952 90.2642 18.3274L90.3035 18.3515C91.9851 18.3515 93.2953 19.3507 93.2953 21.0749V24.8605H91.8742V24.0734H91.827C91.4169 24.7106 90.6899 25.072 89.9329 25.018C89.6287 25.0405 89.3232 25.0019 89.0341 24.9046C88.7457 24.8072 88.4788 24.6531 88.2506 24.4512C88.0223 24.2497 87.8377 24.0043 87.706 23.7297C87.5743 23.4552 87.4999 23.1571 87.4856 22.853C87.4856 21.4287 88.9146 20.6416 90.3271 20.6416C90.8638 20.6392 91.3926 20.769 91.867 21.0194V20.9167C91.8291 20.5389 91.6402 20.1918 91.3432 19.9534C91.1965 19.8355 91.0277 19.7479 90.8466 19.6958C90.6649 19.6436 90.4753 19.628 90.2878 19.6498C90.018 19.6277 89.7482 19.6843 89.51 19.8129C89.2717 19.9414 89.0756 20.1363 88.9461 20.3739L87.6359 19.8312C87.8799 19.352 88.2591 18.9545 88.7257 18.6874ZM88.9303 22.8845C88.9303 23.4752 89.6016 23.7189 90.0824 23.7189L90.1225 23.7428C90.5518 23.7329 90.9633 23.5682 91.281 23.2789C91.5987 22.9896 91.8012 22.5953 91.8513 22.1686C91.4413 21.9406 90.9783 21.8265 90.5089 21.838C89.7668 21.838 88.9303 22.0974 88.9303 22.8845ZM96.7844 22.8298L98.4732 18.5635H98.4739H100.116L96.0739 27.8434H94.5347L96.0345 24.5299L93.4062 18.5635H94.9848L96.7372 22.8298H96.7844ZM86.6806 24.8605H85.2051H85.2037V15.0215H86.6806V24.8605Z" fill="#EFEFEF"/>
<path fill-rule="evenodd" clip-rule="evenodd" d="M10.7339 10.9037L17.4746 16.4572L10.7339 22.0107V10.9037ZM10.7339 9.04936V8.41007C10.7339 7.63683 11.5679 7.15082 12.2406 7.53207L21.7601 12.9264L18.6 15.53L10.7339 9.04936ZM23.0936 13.6821L19.7253 16.4572L23.0939 19.2325L26.4418 17.3354C27.124 16.9488 27.124 15.966 26.4418 15.5794L23.0936 13.6821ZM21.7604 19.9882L18.6 17.3844L10.7339 23.865V24.5048C10.7339 25.278 11.5679 25.7639 12.2406 25.3828L21.7604 19.9882Z" fill="#EFEFEF"/>
</svg>
